<svg id="Capa_1" data-name="Capa 1" xmlns="http://www.w3.org/2000/svg" viewBox="0 0 294.78 150"><defs><style>.cls-1{fill:#fff;}.cls-2{fill:#e52629;}</style></defs><path class="cls-1" d="M178.76,96.09a14.92,14.92,0,1,1,0-22.42,33.09,33.09,0,0,1,6-10.3,26.74,26.74,0,1,0,0,43A33.12,33.12,0,0,1,178.76,96.09Z"/><path class="cls-1" d="M126.35,37.54v25a26.81,26.81,0,1,0,0,44.47v4.57H138.2V37.54Zm-4.21,57.68a15,15,0,1,1,4.21-10.41A14.93,14.93,0,0,1,122.14,95.22Z"/><path class="cls-2" d="M219.88,73.86a14.91,14.91,0,1,0,.66,21.4l8.43,8.28a26.73,26.73,0,1,1-.9-38.2Z"/><path class="cls-1" d="M93.53,130a3.75,3.75,0,0,1-.64.75,4,4,0,0,1-.87.63,4.5,4.5,0,0,1-1.08.42,5,5,0,0,1-1.31.16,5.7,5.7,0,0,1-2.17-.41,5.32,5.32,0,0,1-1.73-1.14,5.22,5.22,0,0,1-1.12-1.73,5.81,5.81,0,0,1-.41-2.19,5.55,5.55,0,0,1,.42-2.19,5,5,0,0,1,1.14-1.73,5.07,5.07,0,0,1,1.72-1.14,5.46,5.46,0,0,1,2.15-.42,5.29,5.29,0,0,1,1.13.12,5.76,5.76,0,0,1,1,.34,5.1,5.1,0,0,1,.88.52,3.08,3.08,0,0,1,.66.69l-.88.64a2.76,2.76,0,0,0-.44-.5,3.13,3.13,0,0,0-.64-.44,4.44,4.44,0,0,0-.8-.31,4,4,0,0,0-.93-.11,4.41,4.41,0,0,0-1.82.36,4.12,4.12,0,0,0-2.21,2.44,5.14,5.14,0,0,0,0,3.46,4.35,4.35,0,0,0,.86,1.44,4,4,0,0,0,1.37,1,4.17,4.17,0,0,0,1.8.37,4,4,0,0,0,1.7-.37,3.26,3.26,0,0,0,1.36-1.18Z"/><path class="cls-1" d="M95.68,131.68H94.62V121.26h1.06Z"/><path class="cls-1" d="M98.77,130.73h5.57v1H97.71V121.26h6.46v.94h-5.4v3.58h5v.94h-5Z"/><path class="cls-1" d="M113.07,130.13h0v-8.87h1.06v10.42h-1.33l-6.06-9h0v9h-1.06V121.26H107Z"/><path class="cls-1" d="M125,130a4.1,4.1,0,0,1-.64.75,4,4,0,0,1-.87.63,4.57,4.57,0,0,1-1.09.42,4.87,4.87,0,0,1-1.3.16,5.76,5.76,0,0,1-2.18-.41,5.11,5.11,0,0,1-2.85-2.87,5.8,5.8,0,0,1-.4-2.19,5.73,5.73,0,0,1,.41-2.19,5.32,5.32,0,0,1,1.14-1.73,5.17,5.17,0,0,1,1.72-1.14,5.51,5.51,0,0,1,2.16-.42,5.19,5.19,0,0,1,1.12.12,5.51,5.51,0,0,1,1,.34,4.75,4.75,0,0,1,.88.52,2.92,2.92,0,0,1,.67.69l-.89.64a2.68,2.68,0,0,0-.43-.5,3.43,3.43,0,0,0-.64-.44,4.75,4.75,0,0,0-.8-.31,4,4,0,0,0-.94-.11,4.36,4.36,0,0,0-1.81.36,4.15,4.15,0,0,0-1.36,1,4.33,4.33,0,0,0-.86,1.45,5.23,5.23,0,0,0-.29,1.73,5,5,0,0,0,.3,1.73,4.35,4.35,0,0,0,.86,1.44,4,4,0,0,0,1.36,1,4.23,4.23,0,0,0,1.8.37,4,4,0,0,0,1.71-.37,3.17,3.17,0,0,0,1.35-1.18Z"/><path class="cls-1" d="M127.11,131.68h-1.06V121.26h1.06Z"/><path class="cls-1" d="M129.06,131.68H127.9l4.5-10.42h1l4.47,10.42h-1.17l-1.15-2.74h-5.39Zm1.53-3.71h4.59l-2.29-5.53Z"/><path class="cls-1" d="M143.74,122.94a2.43,2.43,0,0,0-.86-.76,2.69,2.69,0,0,0-1.28-.29,2.64,2.64,0,0,0-.78.12,2.21,2.21,0,0,0-.72.36,2,2,0,0,0-.53.61,1.86,1.86,0,0,0-.2.87,1.56,1.56,0,0,0,.2.82,1.64,1.64,0,0,0,.5.55,2.74,2.74,0,0,0,.72.38c.27.1.55.2.84.29s.73.25,1.1.39a3.92,3.92,0,0,1,1,.53,2.68,2.68,0,0,1,.72.84,2.74,2.74,0,0,1,.28,1.29,2.86,2.86,0,0,1-.3,1.35,3,3,0,0,1-.77.93,3,3,0,0,1-1.09.54,4.36,4.36,0,0,1-1.23.18,5,5,0,0,1-.94-.09,4.72,4.72,0,0,1-.9-.29,3.59,3.59,0,0,1-.79-.49,3.44,3.44,0,0,1-.65-.67l.91-.68a2.82,2.82,0,0,0,.95.93,2.71,2.71,0,0,0,1.44.38,2.63,2.63,0,0,0,.81-.13,2.26,2.26,0,0,0,.74-.38,2.06,2.06,0,0,0,.54-.63,1.91,1.91,0,0,0,0-1.78,1.89,1.89,0,0,0-.56-.6,3.42,3.42,0,0,0-.81-.41c-.31-.11-.63-.22-1-.32s-.68-.23-1-.37a3.36,3.36,0,0,1-.9-.54,2.42,2.42,0,0,1-.64-.81,2.73,2.73,0,0,1-.24-1.2,2.62,2.62,0,0,1,.3-1.29,2.82,2.82,0,0,1,.78-.9,3.35,3.35,0,0,1,1.08-.51,4.29,4.29,0,0,1,1.16-.17,4,4,0,0,1,1.81.38,3.09,3.09,0,0,1,1.13.89Z"/><path class="cls-1" d="M149.2,121.26h3.46a6.32,6.32,0,0,1,2,.32,5.69,5.69,0,0,1,1.77,1,5.38,5.38,0,0,1,1.27,6.19,5,5,0,0,1-1.27,1.62,5.31,5.31,0,0,1-1.77,1,6.05,6.05,0,0,1-2,.33H149.2Zm1.06,9.47h2.11a5.4,5.4,0,0,0,2-.36,4.34,4.34,0,0,0,1.45-1,3.88,3.88,0,0,0,.86-1.36,4.45,4.45,0,0,0,.29-1.57,4.51,4.51,0,0,0-.29-1.58,4,4,0,0,0-.86-1.36,4.32,4.32,0,0,0-1.45-1,5.21,5.21,0,0,0-2-.37h-2.11Z"/><path class="cls-1" d="M160.66,130.73h5.58v1H159.6V121.26h6.46v.94h-5.4v3.58h5.05v.94h-5.05Z"/><path class="cls-1" d="M171.58,130.73h4.86v1h-5.92V121.26h1.06Z"/><path class="cls-1" d="M177.21,131.68h-1.16l4.5-10.42h1l4.48,10.42h-1.18l-1.15-2.74h-5.38Zm1.53-3.71h4.59L181,122.44Z"/><path class="cls-1" d="M199.72,130.16a5.25,5.25,0,0,1-.66.78,4.28,4.28,0,0,1-.9.64A4.94,4.94,0,0,1,197,132a5.68,5.68,0,0,1-1.35.16,5.8,5.8,0,0,1-2.26-.43,5.29,5.29,0,0,1-2.95-3,6.27,6.27,0,0,1,0-4.54,5.41,5.41,0,0,1,1.18-1.8,5.63,5.63,0,0,1,1.79-1.18,5.83,5.83,0,0,1,2.23-.42,5.74,5.74,0,0,1,1.17.12,5.36,5.36,0,0,1,1.07.35,4.29,4.29,0,0,1,.91.54,2.9,2.9,0,0,1,.69.71l-.91.67a3.48,3.48,0,0,0-.45-.52,3.43,3.43,0,0,0-.67-.46,4.78,4.78,0,0,0-.83-.32,3.74,3.74,0,0,0-1-.12,4.54,4.54,0,0,0-1.88.38,4.43,4.43,0,0,0-1.41,1,4.56,4.56,0,0,0-.88,1.49,5.16,5.16,0,0,0-.31,1.8,5.39,5.39,0,0,0,.31,1.79,4.55,4.55,0,0,0,.9,1.5,4.06,4.06,0,0,0,1.41,1,4.3,4.3,0,0,0,1.86.38,4.14,4.14,0,0,0,1.77-.38,3.35,3.35,0,0,0,1.41-1.22Z"/><path class="cls-1" d="M211.34,126.52a6,6,0,0,1-.43,2.27,5.33,5.33,0,0,1-3,3,6,6,0,0,1-4.46,0,5.33,5.33,0,0,1-3-3,6.21,6.21,0,0,1,0-4.54,5.57,5.57,0,0,1,1.18-1.8,5.63,5.63,0,0,1,1.79-1.18,6.13,6.13,0,0,1,4.46,0,5.63,5.63,0,0,1,1.79,1.18,5.57,5.57,0,0,1,1.18,1.8A6,6,0,0,1,211.34,126.52Zm-1.16,0a5.39,5.39,0,0,0-.31-1.79,4.5,4.5,0,0,0-.88-1.5,4.43,4.43,0,0,0-1.41-1,4.79,4.79,0,0,0-3.74,0,4.43,4.43,0,0,0-1.41,1,4.5,4.5,0,0,0-.88,1.5,5.35,5.35,0,0,0,0,3.59,4.36,4.36,0,0,0,.88,1.49,4.26,4.26,0,0,0,1.41,1,4.79,4.79,0,0,0,3.74,0,4.26,4.26,0,0,0,1.41-1,4.36,4.36,0,0,0,.88-1.49A5.4,5.4,0,0,0,210.18,126.52Z"/><path class="cls-1" d="M218.2,130.05h0l3.61-8.93h1.68v10.79h-1.1v-9.37h0l-3.9,9.37h-.58l-3.9-9.37h0v9.37h-1.1V121.12h1.68Z"/><path class="cls-1" d="M225.6,121.12h3.05a5.82,5.82,0,0,1,1.5.18,3.2,3.2,0,0,1,1.15.53,2.49,2.49,0,0,1,.74.9,2.94,2.94,0,0,1,.26,1.27,2.8,2.8,0,0,1-.27,1.27,2.36,2.36,0,0,1-.75.9,3.28,3.28,0,0,1-1.16.54,5.4,5.4,0,0,1-1.5.19H226.7v5h-1.1Zm1.1,4.85h1.86a3.31,3.31,0,0,0,2-.5,1.75,1.75,0,0,0,.67-1.47,1.63,1.63,0,0,0-.7-1.47,3.46,3.46,0,0,0-1.94-.46H226.7Z"/><path class="cls-1" d="M237.66,132.19a4.21,4.21,0,0,1-2-.42,3.55,3.55,0,0,1-1.23-1.06,3.69,3.69,0,0,1-.63-1.4,6.07,6.07,0,0,1-.18-1.42v-6.77h1.1v6.65a5.38,5.38,0,0,0,.15,1.27,3.16,3.16,0,0,0,.5,1.1,2.5,2.5,0,0,0,.9.77,3.37,3.37,0,0,0,2.78,0,2.53,2.53,0,0,0,.91-.77,3.33,3.33,0,0,0,.49-1.1,5.38,5.38,0,0,0,.15-1.27v-6.65h1.1v6.77a6.61,6.61,0,0,1-.17,1.42,3.87,3.87,0,0,1-.64,1.4,3.5,3.5,0,0,1-1.24,1.06A4.19,4.19,0,0,1,237.66,132.19Z"/><path class="cls-1" d="M247.2,131.91h-1.09V122.1h-3.62v-1h8.33v1H247.2Z"/><path class="cls-1" d="M250.68,131.91h-1.2l4.66-10.79h1.07l4.63,10.79h-1.22l-1.19-2.83h-5.58Zm1.59-3.84H257l-2.38-5.73Z"/><path class="cls-1" d="M269.48,130.16a5.34,5.34,0,0,1-.67.78,4.28,4.28,0,0,1-.9.64,4.86,4.86,0,0,1-1.12.45,6,6,0,0,1-3.61-.27,5.29,5.29,0,0,1-2.95-3,6,6,0,0,1-.42-2.27,5.78,5.78,0,0,1,.43-2.27,5.41,5.41,0,0,1,1.18-1.8,5.59,5.59,0,0,1,1.78-1.18,5.88,5.88,0,0,1,2.24-.42,5.64,5.64,0,0,1,1.16.12,5.46,5.46,0,0,1,1.08.35,4.55,4.55,0,0,1,.91.54,2.9,2.9,0,0,1,.69.71l-.92.67a2.61,2.61,0,0,0-.45-.52,3.07,3.07,0,0,0-.66-.46,4.78,4.78,0,0,0-.83-.32,3.74,3.74,0,0,0-1-.12,4.51,4.51,0,0,0-1.88.38,4.31,4.31,0,0,0-2.29,2.52,5.35,5.35,0,0,0,0,3.59,4.7,4.7,0,0,0,.89,1.5,4.26,4.26,0,0,0,1.41,1,4.37,4.37,0,0,0,1.87.38,4.14,4.14,0,0,0,1.77-.38,3.27,3.27,0,0,0,1.4-1.22Z"/><path class="cls-1" d="M271.7,131.91h-1.1V121.12h1.1Z"/><path class="cls-1" d="M284.48,126.52a6,6,0,0,1-.43,2.27,5.37,5.37,0,0,1-1.18,1.79,5.43,5.43,0,0,1-1.78,1.18,5.73,5.73,0,0,1-2.24.43,5.65,5.65,0,0,1-2.23-.43,5.33,5.33,0,0,1-3-3,6.34,6.34,0,0,1,0-4.54,5.57,5.57,0,0,1,1.18-1.8,5.63,5.63,0,0,1,1.79-1.18,5.83,5.83,0,0,1,2.23-.42,5.91,5.91,0,0,1,2.24.42,5.59,5.59,0,0,1,1.78,1.18,5.41,5.41,0,0,1,1.18,1.8A6,6,0,0,1,284.48,126.52Zm-1.16,0a5.15,5.15,0,0,0-.31-1.79,4.34,4.34,0,0,0-.88-1.5,4.43,4.43,0,0,0-1.41-1,4.79,4.79,0,0,0-3.74,0,4.43,4.43,0,0,0-1.41,1,4.5,4.5,0,0,0-.88,1.5,5.35,5.35,0,0,0,0,3.59,4.36,4.36,0,0,0,.88,1.49,4.26,4.26,0,0,0,1.41,1,4.79,4.79,0,0,0,3.74,0,4.26,4.26,0,0,0,1.41-1,4.21,4.21,0,0,0,.88-1.49A5.16,5.16,0,0,0,283.32,126.52Zm-4.45-6.25H278l1.52-2.2h1.39Z"/><path class="cls-1" d="M293.65,130.31h0v-9.19h1.1v10.79h-1.37l-6.28-9.28h0v9.28H286V121.12h1.37Z"/><path class="cls-1" d="M88.24,147.55a4.24,4.24,0,0,1-2-.42A3.56,3.56,0,0,1,85,146.06a3.92,3.92,0,0,1-.64-1.41,6.3,6.3,0,0,1-.18-1.44v-6.84h1.11v6.71a5,5,0,0,0,.16,1.29,3.12,3.12,0,0,0,.5,1.11,2.6,2.6,0,0,0,.91.79,3.44,3.44,0,0,0,2.81,0,2.72,2.72,0,0,0,.92-.79,3.31,3.31,0,0,0,.5-1.11,5.43,5.43,0,0,0,.15-1.29v-6.71h1.11v6.84a6.3,6.3,0,0,1-.18,1.44,3.75,3.75,0,0,1-.64,1.41,3.47,3.47,0,0,1-1.25,1.07A4.28,4.28,0,0,1,88.24,147.55Z"/><path class="cls-1" d="M102.12,145.66h0v-9.29h1.11v10.91h-1.39l-6.34-9.39h0v9.39H94.38V136.37h1.39Z"/><path class="cls-1" d="M106.5,147.28h-1.11V136.37h1.11Z"/><path class="cls-1" d="M112,145.84h0l3.54-9.47h1.19l-4.18,10.91h-1.17l-4.16-10.91h1.2Z"/><path class="cls-1" d="M118.56,146.29h5.84v1h-7V136.37h6.77v1h-5.66v3.75h5.29v1h-5.29Z"/><path class="cls-1" d="M126.91,147.28h-1.1V136.37H129a7,7,0,0,1,1.49.15,3.32,3.32,0,0,1,1.18.5,2.26,2.26,0,0,1,.78.9,2.94,2.94,0,0,1,.28,1.36,2.59,2.59,0,0,1-.22,1.09,2.72,2.72,0,0,1-.58.86,3,3,0,0,1-.88.58,3.93,3.93,0,0,1-1.11.27l3.19,5.2h-1.36l-3-5.1h-1.85Zm0-6.06h1.93a3.68,3.68,0,0,0,2.07-.49,1.62,1.62,0,0,0,.72-1.45,1.94,1.94,0,0,0-.2-.91,1.54,1.54,0,0,0-.56-.6,2.31,2.31,0,0,0-.86-.34,5.52,5.52,0,0,0-1.12-.11h-2Z"/><path class="cls-1" d="M139.55,138.12a2.67,2.67,0,0,0-.91-.79,2.79,2.79,0,0,0-1.34-.3,3,3,0,0,0-.82.12,2.31,2.31,0,0,0-.75.38,1.86,1.86,0,0,0-.76,1.55,1.71,1.71,0,0,0,.2.86,2,2,0,0,0,.53.58,2.86,2.86,0,0,0,.76.39l.88.31c.38.12.76.26,1.14.4a4,4,0,0,1,1,.56,2.82,2.82,0,0,1,.76.88,2.87,2.87,0,0,1,.29,1.35,3.12,3.12,0,0,1-.31,1.41,3,3,0,0,1-.81,1,3.49,3.49,0,0,1-1.14.57,4.78,4.78,0,0,1-1.29.18,4.66,4.66,0,0,1-1-.1,3.69,3.69,0,0,1-.94-.3,3.63,3.63,0,0,1-.84-.51,3.71,3.71,0,0,1-.67-.7l.95-.71a2.91,2.91,0,0,0,1,1,2.71,2.71,0,0,0,1.5.4,3.19,3.19,0,0,0,.85-.13,2.46,2.46,0,0,0,.77-.4,1.94,1.94,0,0,0,.57-.67,1.78,1.78,0,0,0,.23-.91,1.83,1.83,0,0,0-.23-1,1.86,1.86,0,0,0-.59-.63,4,4,0,0,0-.85-.43l-1-.34c-.36-.11-.71-.24-1.06-.38a3.55,3.55,0,0,1-.94-.56,2.59,2.59,0,0,1-.67-.86,3.07,3.07,0,0,1,.06-2.6,2.88,2.88,0,0,1,.82-.94,3.37,3.37,0,0,1,1.13-.54,4.33,4.33,0,0,1,1.22-.17,4.19,4.19,0,0,1,1.89.39,3.21,3.21,0,0,1,1.19.93Z"/><path class="cls-1" d="M143.29,147.28h-1.1V136.37h1.1Z"/><path class="cls-1" d="M145.42,136.37H149a6.59,6.59,0,0,1,2,.33,5.6,5.6,0,0,1,1.85,1,5.62,5.62,0,0,1,1.34,6.48,5.14,5.14,0,0,1-1.34,1.7,5.6,5.6,0,0,1-1.85,1,6.61,6.61,0,0,1-2,.34h-3.62Zm1.11,9.92h2.2a5.43,5.43,0,0,0,2.15-.39,4.47,4.47,0,0,0,1.52-1,4.22,4.22,0,0,0,.9-1.43,4.64,4.64,0,0,0,.3-1.65,4.72,4.72,0,0,0-.3-1.65,4.08,4.08,0,0,0-.9-1.42,4.35,4.35,0,0,0-1.52-1,5.43,5.43,0,0,0-2.15-.39h-2.2Z"/><path class="cls-1" d="M155.87,147.28h-1.22l4.72-10.91h1.08l4.68,10.91H163.9l-1.2-2.87h-5.64Zm1.6-3.89h4.81l-2.4-5.79Z"/><path class="cls-1" d="M166,136.37h3.62a6.7,6.7,0,0,1,2,.33,5.71,5.71,0,0,1,1.85,1,5.39,5.39,0,0,1,1.33,1.71,5.36,5.36,0,0,1-1.33,6.47,5.71,5.71,0,0,1-1.85,1,6.72,6.72,0,0,1-2,.34H166Zm1.11,9.92h2.21a5.5,5.5,0,0,0,2.15-.39,4.43,4.43,0,0,0,1.51-1,4.22,4.22,0,0,0,.9-1.43,4.44,4.44,0,0,0,.31-1.65,4.51,4.51,0,0,0-.31-1.65,4.08,4.08,0,0,0-.9-1.42,4.31,4.31,0,0,0-1.51-1,5.5,5.5,0,0,0-2.15-.39h-2.21Z"/><path class="cls-1" d="M179.94,136.37h3.62a6.59,6.59,0,0,1,2,.33,5.6,5.6,0,0,1,1.85,1,5.12,5.12,0,0,1,1.33,1.71,5.83,5.83,0,0,1,0,4.77,5,5,0,0,1-1.33,1.7,5.6,5.6,0,0,1-1.85,1,6.61,6.61,0,0,1-2,.34h-3.62Zm1.11,9.92h2.2a5.47,5.47,0,0,0,2.15-.39,4.47,4.47,0,0,0,1.52-1,4.22,4.22,0,0,0,.9-1.43,4.64,4.64,0,0,0,.3-1.65,4.72,4.72,0,0,0-.3-1.65,4.08,4.08,0,0,0-.9-1.42,4.35,4.35,0,0,0-1.52-1,5.47,5.47,0,0,0-2.15-.39h-2.2Z"/><path class="cls-1" d="M191.94,146.29h5.84v1h-6.95V136.37h6.77v1h-5.66v3.75h5.29v1h-5.29Z"/><path class="cls-1" d="M211.45,145.5a4.46,4.46,0,0,1-.67.79,3.83,3.83,0,0,1-.91.65,4.84,4.84,0,0,1-1.14.45,5.29,5.29,0,0,1-1.36.16,5.9,5.9,0,0,1-2.28-.43,5.32,5.32,0,0,1-3-3,6,6,0,0,1-.43-2.3,6.15,6.15,0,0,1,.43-2.3,5.61,5.61,0,0,1,1.2-1.81,5.71,5.71,0,0,1,1.8-1.19,6.05,6.05,0,0,1,3.44-.31,5.48,5.48,0,0,1,1.08.36,4.71,4.71,0,0,1,.93.54,2.94,2.94,0,0,1,.69.72l-.92.68a3.11,3.11,0,0,0-.46-.53,3.43,3.43,0,0,0-.67-.46,4,4,0,0,0-.84-.32,3.81,3.81,0,0,0-1-.13,4.48,4.48,0,0,0-1.9.39,4.12,4.12,0,0,0-1.42,1,4.59,4.59,0,0,0-.9,1.51,5.46,5.46,0,0,0-.31,1.81,5.18,5.18,0,0,0,.32,1.81,4.64,4.64,0,0,0,.9,1.52,4.26,4.26,0,0,0,1.43,1,4.42,4.42,0,0,0,1.88.39,4.21,4.21,0,0,0,1.79-.39,3.35,3.35,0,0,0,1.42-1.23Z"/><path class="cls-1" d="M212.59,136.37h1.11v4.73h6v-4.73h1.11v10.91h-1.11v-5.17h-6v5.17h-1.11Z"/><path class="cls-1" d="M224,147.28h-1.11V136.37H224Z"/><path class="cls-1" d="M227.23,146.29h5.09v1h-6.2V136.37h1.11Z"/><path class="cls-1" d="M234.32,146.29h5.84v1h-6.95V136.37H240v1h-5.66v3.75h5.29v1h-5.29Z"/><path class="cls-1" d="M35.72,57.32v-21l1.43.92,4.21,13a.39.39,0,0,0,.17.21.45.45,0,0,0,.16,0l.11,0,.45-.14a.35.35,0,0,0,.22-.44L38.7,38.26,43,41.05l8.57,11.79a.32.32,0,0,0,.28.14.3.3,0,0,0,.2-.06l.39-.28a.43.43,0,0,0,.14-.23.36.36,0,0,0-.06-.25l-8.72-12-1.28-4.88,10,7.26a.37.37,0,0,0,.2.07h.06a.32.32,0,0,0,.22-.13l.29-.39a.35.35,0,0,0-.08-.48l-11.15-8.1-.42-1.6,20.71,6.73.1,0a.47.47,0,0,0,.16,0,.34.34,0,0,0,.17-.2L63,38a.34.34,0,0,0-.22-.43l-20.61-6.7,1.31-1.07H57.09a.34.34,0,0,0,.34-.34v-.48a.33.33,0,0,0-.1-.25.35.35,0,0,0-.24-.1H44.87l4-3.26,13.88-4.51a.34.34,0,0,0,.22-.43l-.15-.46a.37.37,0,0,0-.17-.2.34.34,0,0,0-.26,0L48.13,24.34l-5-.28,10.07-7.32a.35.35,0,0,0,.08-.48L53,15.87a.32.32,0,0,0-.22-.13.34.34,0,0,0-.26.06L41.33,24l-1.61-.09L52.56,6.19a.36.36,0,0,0,.06-.25.43.43,0,0,0-.14-.23l-.39-.28a.34.34,0,0,0-.48.08L38.81,23.12l-.6-1.52L42.47,8.48a.32.32,0,0,0,0-.27.34.34,0,0,0-.2-.17L41.8,7.9a.35.35,0,0,0-.44.22L37.54,19.87l-1.82-4.68V.35A.34.34,0,0,0,35.38,0h-.49a.35.35,0,0,0-.34.35V15.18l-1.82,4.69L28.91,8.12a.34.34,0,0,0-.17-.2.32.32,0,0,0-.27,0L28,8.05a.34.34,0,0,0-.22.43l4.26,13.11-.6,1.53L18.66,5.51a.34.34,0,0,0-.48-.08l-.39.28a.43.43,0,0,0-.14.23.32.32,0,0,0,.07.25L30.55,23.86,28.94,24,17.72,15.8a.34.34,0,0,0-.26-.06.32.32,0,0,0-.22.13l-.28.39a.34.34,0,0,0,.07.48L27.1,24.06l-5,.28L7.9,19.71a.36.36,0,0,0-.27,0,.37.37,0,0,0-.17.2l-.15.46a.34.34,0,0,0,.23.43l13.87,4.51,4,3.26H13.18a.34.34,0,0,0-.34.35v.48a.34.34,0,0,0,.34.34H26.83l1.31,1.07-20.6,6.7a.35.35,0,0,0-.23.43l.15.46a.34.34,0,0,0,.17.2.47.47,0,0,0,.16,0l.11,0,20.7-6.73-.42,1.6L17,41.6a.35.35,0,0,0-.07.49l.28.39a.32.32,0,0,0,.22.13h.06a.37.37,0,0,0,.2-.07l10-7.26-1.28,4.88-8.71,12a.28.28,0,0,0-.06.25.36.36,0,0,0,.13.23l.39.28a.3.3,0,0,0,.2.06.32.32,0,0,0,.28-.14l8.57-11.79,4.34-2.79L27.8,49.87a.32.32,0,0,0,0,.27.34.34,0,0,0,.2.17l.45.14.11,0a.34.34,0,0,0,.33-.24l4.21-13,1.43-.92v21H0v84.94c0,3.27,1.88,5.15,5.14,5.15H30c1.08,0,4.18.3,4.18,1.67V150h1.83v-.92c0-1.37,3.1-1.67,4.19-1.67H65.13c3.27,0,5.14-1.88,5.14-5.15V57.32Zm32.72,43H45.11a10.4,10.4,0,0,0-5-6.15s0,0,0-.06a2.32,2.32,0,0,1-.61-.74C39,92.7,38.31,91.72,37,91.94a2.88,2.88,0,0,0-1.33.51V59.15H68.44ZM35.13,113a9.72,9.72,0,0,1,0-19.43l.37,0c.07.09.18.2.31.34a.87.87,0,0,0-.5.36.8.8,0,0,0,0,.15h-.15a8.89,8.89,0,1,0,3.93.93l0,0s0-.06-.07-.08a16.52,16.52,0,0,0-2.41-.58,1.29,1.29,0,0,1-.47-.16,2.51,2.51,0,0,1,.45-.1.32.32,0,0,0,.28-.23.33.33,0,0,0-.08-.35L36,93.16a.1.1,0,0,1,0-.07c0-.07.24-.31,1.14-.47s1.18.38,1.71,1.18a3,3,0,0,0,.81.91h0A9.71,9.71,0,0,1,35.13,113ZM32.65,36.75h0l-.64.41h0l-4.33,2.78L34.88,30v5.28l-.17.11h0Zm-4-2.31.17-.64h0l.64-2.44,5-1.63-7.2,9.91Zm-1.47-5.29-.59-.48h0l-3.9-3.19L34.3,29.25l-5,1.63-.21-.17h0l-1.9-1.55Zm4.2-4.65,3.11,4.28L22.81,25ZM33,21.19,33,21h0l1.86-4.79V28.48l-3.1-4.27.1-.25h0Zm5.54,3-3.1,4.27V16.23Zm8.94.78L35.8,28.77l3.1-4.27Zm-4,3.92-.29.24h0L41,30.89l-5-1.64,11.67-3.79Zm-1.77,5.51L43,39.64l-7.19-9.9,5,1.63v0l0,.07h0l.61,2.32h0Zm-3.36,2.74-.64-.41h0l-2.06-1.32h0l-.17-.11V30L42.59,40l-4.32-2.79Zm1.4,66.2a5.5,5.5,0,0,1-2.42,1.91,2.82,2.82,0,0,0,.76-1.92,2.85,2.85,0,0,0-.72-1.88A5.55,5.55,0,0,1,39.66,103.36Zm-4.95-2.3c.14,0,.28,0,.42,0s.29,0,.43,0a2.34,2.34,0,1,1-.85,0Zm-2.44,2.29a2.82,2.82,0,0,0,.76,1.92,5.5,5.5,0,0,1-2.42-1.91A5.55,5.55,0,0,1,33,101.47,2.85,2.85,0,0,0,32.27,103.35Zm-2,.63A6.21,6.21,0,0,0,40,104l1.85,3.21H28.38Zm4.9-3.64a6.22,6.22,0,0,0-3.39,1l3.39-5.88,3.4,5.88A6.23,6.23,0,0,0,35.13,100.34Zm-5.3,2.94,0,.08h0l-2,3.47a8,8,0,0,1-.81-3.53,8.17,8.17,0,0,1,7.55-8.14Zm12.08,4.59a8.16,8.16,0,0,1-13.55,0Zm.58-1-2-3.47h0l0,0-4.7-8.14h0a2.06,2.06,0,0,0,.68.24c.41.08,1.59.31,2.08.48a8.16,8.16,0,0,1,4.79,7.42A8,8,0,0,1,42.49,106.84ZM34.56,59.15V92.93a10.42,10.42,0,0,0-9.4,7.43H1.83V59.15ZM30,145.57H5.14c-2.22,0-3.31-1.08-3.31-3.31V101.51H24.9a9.8,9.8,0,0,0-.17,1.8,10.4,10.4,0,0,0,9.83,10.37v32.94A9,9,0,0,0,30,145.57Zm35.09,0H40.24a9.05,9.05,0,0,0-4.53,1.05V113.68a10.4,10.4,0,0,0,9.83-10.37,10.66,10.66,0,0,0-.17-1.8H68.44v40.75C68.44,144.49,67.35,145.57,65.13,145.57Z"/><path class="cls-1" d="M40.9,67.46a3.44,3.44,0,0,0,.77-.09L44.28,71a13.48,13.48,0,0,0,.11,3.41c.39,2.74,2.24,4.2,5.34,4.21l.79,1.11c-.84,1-1.86,3.13-.42,4.63a2.9,2.9,0,0,0,2.23.77,12.25,12.25,0,0,0,1.91-.2h0c-.48.52-1.65,2-.8,3.44a3.1,3.1,0,0,0,2,1.49,2.53,2.53,0,0,1,1,.47,2.14,2.14,0,0,1,.73,1.89c0,.09,0,.18,0,.28a2.13,2.13,0,0,0,.88,1.52,3.64,3.64,0,0,1,.34.34,2,2,0,0,1,.33.73c.12.41.26.87.7.93h.06a.51.51,0,0,0,.36-.16,4.8,4.8,0,0,0,.58-2.26l2.82,3.94a.3.3,0,0,0,.08.08l1.21.83a.36.36,0,0,0,.2.06.35.35,0,0,0,.19-.06.34.34,0,0,0,.14-.36l-.33-1.44a.34.34,0,0,0-.05-.11l-5.28-8.11a1.76,1.76,0,0,0-.75-1.15L57.15,85c.94-1,1.14-1.92.56-2.75a2.78,2.78,0,0,0-2.9-.84l-.71-1.08a3.21,3.21,0,0,0,.25-4.07,2.92,2.92,0,0,0-2.45-.93c-.3,0-.62,0-.92,0h-.11L48.38,71.5c.07-.12.13-.24.19-.32a2.6,2.6,0,0,0,1.53,1,.81.81,0,0,0,.31-.06c.44-.2,1.3-2.14,1-3.71a3.13,3.13,0,0,0-3.05-2.32,3.27,3.27,0,0,0-2.24.92,2.4,2.4,0,0,0-.41.39l-1.22-1.87a2.25,2.25,0,0,0,.29-2.58,2,2,0,0,0-1.69-.77,4.23,4.23,0,0,0-2.35.8c-1.55,1.06-2.21,2.71-1.5,3.75A2,2,0,0,0,40.9,67.46ZM51.28,78.53l.26,0,.18,0,.3-.06h0l2,3.08c-.22.05-.43.1-.63.13l-.08,0a4.82,4.82,0,0,1-.61,0l-2.2-3.08.49,0Zm8.21,16.65c0-.08-.06-.18-.09-.25a2.46,2.46,0,0,0-.46-1c-.13-.14-.27-.27-.4-.39a1.49,1.49,0,0,1-.65-1.05c0-.09,0-.19,0-.28a2.86,2.86,0,0,0-1-2.36,3.08,3.08,0,0,0-1.24-.62,2.37,2.37,0,0,1-1.63-1.18c-.56-1,.18-2,.61-2.51l.19.26.2.27.06.09.27.38a3,3,0,0,1,.32.57.41.41,0,0,0,0,.4.52.52,0,0,0,.45.2l.19,0h0l.2,0h0a5.37,5.37,0,0,1,.72-.06,1.49,1.49,0,0,1,.72.14,1.1,1.1,0,0,1,.69,1,.53.53,0,0,1,0,.13,3.36,3.36,0,0,1-.05.51v0a2.2,2.2,0,0,0,.71,2.36,1.71,1.71,0,0,1,.27.29.45.45,0,0,1,.1.29A10.62,10.62,0,0,1,59.49,95.18Zm4.73,2.24-.43-.3-3.29-4.6v-.16a1.16,1.16,0,0,0,0-.28,3.16,3.16,0,0,0-.67-.91L59.66,91,59.6,91a1.38,1.38,0,0,1-.14-.24.75.75,0,0,1,0-.16.88.88,0,0,1-.06-.29c0-.08,0-.2,0-.3s0-.18,0-.29l4.72,7.23Zm-6.85-10.5h-.29l-.52,0h0L56,86.2c-.14-.21-.32-.48-.56-.78l-.1-.15L55,84.82l.17,0,.35-.06.34,0h.31l1.45,2.23Zm-1.76-5a1.74,1.74,0,0,1,1.54.64c.21.31.4.8-.25,1.61a1.13,1.13,0,0,0-.47-.16l0,0H56a4.55,4.55,0,0,0-.61,0l-.23,0-.7.12-.12,0a13,13,0,0,1-2.05.23,2.29,2.29,0,0,1-1.74-.56c-1.12-1.17-.19-2.81.32-3.52.17.24.4.58.67,1a.7.7,0,0,0,.05.61,1,1,0,0,0,.91.38l0,0h.11a6.08,6.08,0,0,0,.71-.07c.36-.06.71-.12,1-.19h0A5,5,0,0,1,55.61,82Zm-5.8-6.62c-.11,0-.23,0-.33,0a1.15,1.15,0,0,1-.28-.07.73.73,0,0,1-.2,0,2.34,2.34,0,0,1-.27-.15s-.06,0-.09-.06a1.08,1.08,0,0,1-.26-.3,3.48,3.48,0,0,1-.3-.66A3,3,0,0,1,48,72.81v0a3.53,3.53,0,0,1,.08-.4.3.3,0,0,1,0-.1l2,3.06ZM46.5,67.52l0,0a2.58,2.58,0,0,1,1.78-.74,2.42,2.42,0,0,1,2.37,1.77,4.42,4.42,0,0,1-.6,2.94c-.25,0-.78-.43-1.23-1a.35.35,0,0,0-.39-.1,1.94,1.94,0,0,0-.81,1h0c0,.07-.08.18-.13.3a1.12,1.12,0,0,1,0,.13,4.16,4.16,0,0,0-.22,1.48v.07c0,.14,0,.28,0,.43l0,.15a3.57,3.57,0,0,0,.12.4s0,.1.05.16a4.53,4.53,0,0,0,.27.54h0a2.47,2.47,0,0,0,2.31,1l.6,0H51l.89,0a2.22,2.22,0,0,1,1.91.67,2.35,2.35,0,0,1,0,2.8c-.33-.74-.91-1.76-1.63-1.76h-.07a1.1,1.1,0,0,0-.25,0l-.29.05-.37,0-.16,0-.32,0-.27,0-.3,0h-.43c-2.77,0-4.34-1.22-4.69-3.62A12.81,12.81,0,0,1,45,70.94a8.51,8.51,0,0,1,.15-.84c0-.06,0-.12,0-.18q.11-.37.21-.69l0-.06c.06-.15.12-.27.18-.4s.13-.27.2-.38l.1-.17A3.07,3.07,0,0,1,46.5,67.52Zm-5.4-4a3.64,3.64,0,0,1,2-.67,1.26,1.26,0,0,1,1.12.47c.33.47.16,1.24-.41,2a.36.36,0,0,0,0,.41L45.24,68a6.3,6.3,0,0,0-.63,1.41.19.19,0,0,1,0,.07c-.05.16-.09.34-.13.52l0,.1-2.34-3.27a.34.34,0,0,0-.28-.14h-.09a2.74,2.74,0,0,1-.82.13,1.29,1.29,0,0,1-1.12-.48C39.3,65.6,39.9,64.32,41.1,63.5Z"/><path class="cls-1" d="M49.8,69.65a.69.69,0,0,0,.69-.69.69.69,0,0,0-1.38,0A.69.69,0,0,0,49.8,69.65Z"/><path class="cls-1" d="M37.1,92.78a.44.44,0,1,0,0,.88.44.44,0,0,0,0-.88Z"/><path class="cls-1" d="M29.54,126.69a7.29,7.29,0,1,0-9.69,6.85H14.26l-2-5.45a1.69,1.69,0,0,0,.23-.8,1.66,1.66,0,1,0-3.31,0,1.64,1.64,0,0,0,.22.78l-2,5.47H6.9a.35.35,0,0,0-.34.35v3a.35.35,0,0,0,.34.35H25.37v5.72a.34.34,0,0,0,.34.34h2.72a.34.34,0,0,0,.34-.34v-6a.09.09,0,0,0,0-.05v-3a.35.35,0,0,0-.35-.35H24.65A7.28,7.28,0,0,0,29.54,126.69Zm-17.72,1.89.92,2.5-1.36-2.25A1.92,1.92,0,0,0,11.82,128.58Zm-1-2.26a1,1,0,1,1-1,1A1,1,0,0,1,10.82,126.32Zm-1,2.25a1.7,1.7,0,0,0,.43.26l-1.36,2.25Zm1,.44,2.76,4.53H8.06Zm17.28,7.79v5.77h-2v-5.72a.35.35,0,0,0-.35-.34H7.24v-2.28H28.09ZM28,129.6c0-.12,0-.24,0-.33a2,2,0,0,0-.19-.51,1.37,1.37,0,0,1-.12-.26,1.37,1.37,0,0,0-.36-.75,1.41,1.41,0,0,1-.18-.41,1.35,1.35,0,0,0-.22-.47,1,1,0,0,1-.14-.32,1,1,0,0,0-.11-.28,1.59,1.59,0,0,1,.15-.42,2.41,2.41,0,0,1,.42-.22,4.29,4.29,0,0,1,.54-.14c.22,0,.51-.36.52-.36a.35.35,0,0,0,.08-.29,2.34,2.34,0,0,0-.12-.39,1,1,0,0,1,0-.32h0a6.66,6.66,0,0,1,.52,2.57,6.5,6.5,0,0,1-.81,3.1Zm-3.13-5.83,0,0,.05-.06.22,0a.85.85,0,0,0,.43-.1.24.24,0,0,0,.09-.08,3.08,3.08,0,0,1,.23-.32.81.81,0,0,0,.28-.55,1.29,1.29,0,0,0,0-.42s0-.07,0-.1a.64.64,0,0,0-.18-.37l-.06-.08a.93.93,0,0,1-.12-.2.06.06,0,0,1,0,0,1.72,1.72,0,0,0,.21-.15,6.71,6.71,0,0,1,2.19,2.59s0,0,0,0a2,2,0,0,0-.33,0,.42.42,0,0,0-.26.08h0a.91.91,0,0,1-.45-.08.74.74,0,0,0-.25-.06,2,2,0,0,0-.42-.23,1.09,1.09,0,0,0-.44,0h-.05c-.22,0-.34.31-.39.46v0l-.06.44a1.09,1.09,0,0,1-.37.13,1.94,1.94,0,0,1-.3-.07,2.76,2.76,0,0,1,.12-.32A.5.5,0,0,0,24.91,123.77ZM23,120.17a5.41,5.41,0,0,1,1.13.24,1.35,1.35,0,0,0-.14.32s0,.12,0,.23a5,5,0,0,1-.07.64.08.08,0,0,1-.06,0,1,1,0,0,0-.46-.61c-.16-.08-.24-.13-.29-.25a2.09,2.09,0,0,1-.11-.49Zm-3.46,1a.67.67,0,0,0,.82.66,1.5,1.5,0,0,0,.53-.42,2.29,2.29,0,0,1,.38-.32,1,1,0,0,0,.44-.1l0,0a3.74,3.74,0,0,1,0,.4,2.65,2.65,0,0,0,0,.61.31.31,0,0,1-.09.27.44.44,0,0,1-.2.13l-.07-.05a.9.9,0,0,0-.53-.24.46.46,0,0,0-.23.06,1.6,1.6,0,0,0-.87.81.67.67,0,0,1-.13.22v-.11a.65.65,0,0,0-.51-.57l-.13,0a1,1,0,0,0-.3-.06.39.39,0,0,0-.28.11,1.4,1.4,0,0,0-.41,1.06,2.92,2.92,0,0,0,1.06,1.52,15.15,15.15,0,0,1,1.61,1.24,5.55,5.55,0,0,0,1.22.51c.67.19,1,.44,1,.59a1.86,1.86,0,0,1-.43,1.16,5.52,5.52,0,0,0-.84.84l-.13.15c-.19.19-.26.31-.37.93a14.81,14.81,0,0,1-.51,1.74l-.13.06c0-.24-.07-.72-.09-1s0-.53-.06-.6,0-.33,0-.53a3.52,3.52,0,0,0,0-.95.53.53,0,0,1,0-.11c-.08-.28-.2-.74-.56-.88a1.68,1.68,0,0,1-.74-.4,2.55,2.55,0,0,0,0-.45,3.17,3.17,0,0,1,0-.81l.25-.13c.3-.14.54-.26.58-.47s-.19-.36-.34-.44a.88.88,0,0,1-.18-.1c-.06-.18-.27-.34-.72-.63a3.43,3.43,0,0,1-.33-.23.91.91,0,0,1-.06-.11c-.22-.45-.46-.89-.82-.91a2.36,2.36,0,0,1-.74-.23,6.54,6.54,0,0,1,2.91-2.62C19.54,120.87,19.56,121.05,19.57,121.16Zm.85,11.16v0Zm1.83,1a6.61,6.61,0,0,1-6.6-6.6,6.51,6.51,0,0,1,.74-3,2.8,2.8,0,0,0,.93.3c.05,0,.17.11.44.65a.72.72,0,0,0,.13.22,3,3,0,0,0,.42.31,4.93,4.93,0,0,1,.53.37.66.66,0,0,0,.38.37l-.2.1a2.2,2.2,0,0,0-.31.16c-.26.16-.24.59-.19,1.23a1.77,1.77,0,0,1,0,.37c0,.12-.05.48,1,.87.14.06.24.43.28.57s0,.13,0,.15a6.14,6.14,0,0,1,0,.78c0,.34,0,.53,0,.62s0,.31,0,.55a8.68,8.68,0,0,0,.13,1.23.32.32,0,0,0,.32.22,1.3,1.3,0,0,0,.53-.18.2.2,0,0,0,.1-.12,12.86,12.86,0,0,0,.55-1.9c.1-.54.14-.57.26-.7l.16-.17a4.53,4.53,0,0,1,.76-.76,2.26,2.26,0,0,0,.6-1.59c-.06-.5-.76-.8-1.34-1a8.6,8.6,0,0,1-1-.39,13.77,13.77,0,0,0-1.76-1.35,2.76,2.76,0,0,1-.78-1.17,1,1,0,0,1,.26-.63l.14,0,.2,0c.05,0,.11.09.12.12,0,.32,0,.6.24.68h.1c.24,0,.55-.3.68-.64a1.27,1.27,0,0,1,.62-.56h.05a.53.53,0,0,1,.25.14l.11.08a.68.68,0,0,0,.79-.21.88.88,0,0,0,.2-.64,2.45,2.45,0,0,1,0-.52c0-.11,0-.24,0-.45,0-.44-.28-.48-.37-.48a.79.79,0,0,0-.32.1.8.8,0,0,1-.2.07h0c-.26,0-.48.23-.71.46a1.65,1.65,0,0,1-.35.3c-.12,0-.2-.11-.22-.26s0-.39-.07-.6a6.7,6.7,0,0,1,2.29-.43c.11,0,.21,0,.31,0h0a.14.14,0,0,0,0,.09,2.6,2.6,0,0,0,.15.69,1,1,0,0,0,.52.47.45.45,0,0,1,.19.29c0,.24.26.4.59.4h.08c.29,0,.33-.4.38-1.07,0-.08,0-.15,0-.17a2.28,2.28,0,0,1,.14-.28,7.47,7.47,0,0,1,1,.49.47.47,0,0,0-.26.44.86.86,0,0,0,.2.46.94.94,0,0,0,.09.12.4.4,0,0,1,.08.12.51.51,0,0,0,0,.13,1.28,1.28,0,0,1,0,.3.42.42,0,0,1-.15.26l0,0-.24.32-.08,0a3.61,3.61,0,0,0-.39,0,.2.2,0,0,0-.15.06,1,1,0,0,0-.24.26.46.46,0,0,0,0,.4.32.32,0,0,1,0,.09,1.43,1.43,0,0,0-.18.72c.05.13.15.21.67.32h.1c.19,0,.83-.18.83-.5a4.11,4.11,0,0,1,.05-.44.91.91,0,0,1,.07-.14h0a.84.84,0,0,1,.21,0,1.23,1.23,0,0,1,.33.18.36.36,0,0,0,.22.07l.12,0a1.3,1.3,0,0,0,.66.11.49.49,0,0,0,.24-.1h0a.84.84,0,0,0,0,.36,1.52,1.52,0,0,1,.09.25,1.35,1.35,0,0,1-.19.16l-.63.16h0a2.09,2.09,0,0,0-.61.35s-.45.72-.18,1a.72.72,0,0,1,.05.14,1.51,1.51,0,0,0,.23.48,2,2,0,0,1,.14.32A1.37,1.37,0,0,0,27,128a.93.93,0,0,1,.25.51,1.68,1.68,0,0,0,.17.42,1.44,1.44,0,0,1,.14.34,2.62,2.62,0,0,1,0,.29,1.53,1.53,0,0,0,0,.45c0,.08,0,.3-.06.53A6.58,6.58,0,0,1,22.25,133.29Z"/><path class="cls-1" d="M8.42,111.26l.2.12,0,0,5.19,15.07.32-.11-3.87-11.24,3.83,9.34.32-.13-3.94-9.61,4.11,8.51.31-.15-4.24-8.79,4.51,8,.29-.17L10.83,114l4.9,7.45.29-.18-4.95-7.54,5.34,7,.27-.21-5.41-7.13,5.87,6.7.26-.23-5.85-6.67L18,119.59l.24-.24L11.79,113,19,119.12l.22-.26L12,112.73l8.12,6,.2-.28-8-5.94,9.35,6,.18-.29L9.8,110.5l-.05-.2,1.75-1.43-2.26-.13-.82-2.1-.82,2.1-2.25.13L7.1,110.3l-.57,2.18Zm-.33-1.86.33-.87.34.87.94,0L9,110l.24.91-.79-.51-.78.51.24-.91-.73-.59Z"/><path class="cls-1" d="M65.35,133.77a4,4,0,0,1,0-1.16l0-.48s0,0,0,0,0,0,0,0a.35.35,0,0,0-.3-.38l-1-.1.34-.4a.37.37,0,0,0,.08-.3.35.35,0,0,0-.2-.24.48.48,0,0,1-.24-.3,3,3,0,0,1-.06-1v-.44s0,0,0,0a.34.34,0,0,0-.31-.37l-1.56-.13c0-3.13.06-9.39.06-10.77a.34.34,0,0,0-.14-.28.37.37,0,0,0-.31,0c-.41.13-.89.25-1.34.35v-1.25a.34.34,0,0,0-.17-.29.32.32,0,0,0-.33,0,5.5,5.5,0,0,1-2.08.49,2.59,2.59,0,0,1-1.07-.2,5.92,5.92,0,0,0-2.24-.56h-.14a2.92,2.92,0,0,0,.85-1.4.22.22,0,0,0-.07-.24.27.27,0,0,0-.26,0,4.05,4.05,0,0,1-.53.23,4.82,4.82,0,0,0,.59-1.3.23.23,0,0,0-.33-.26,4.66,4.66,0,0,1-.57.24,3.88,3.88,0,0,0,.42-1,.23.23,0,0,0-.06-.24.26.26,0,0,0-.24,0,5.53,5.53,0,0,1-.94.27,3,3,0,0,1-.57-1.49c-.06-.39-.12-.74-.45-.74s-.4.39-.46.8a2.83,2.83,0,0,1-.54,1.5,4,4,0,0,1-.88-.33.23.23,0,0,0-.25,0,.22.22,0,0,0-.08.24,4.45,4.45,0,0,0,.42,1,5.68,5.68,0,0,1-.57-.24.23.23,0,0,0-.33.26,4.79,4.79,0,0,0,.59,1.29,3.41,3.41,0,0,1-.53-.22.27.27,0,0,0-.26,0,.22.22,0,0,0-.07.24,3,3,0,0,0,1.36,1.78,5.19,5.19,0,0,0-2,.73,6.44,6.44,0,0,1-3.26.86,5.47,5.47,0,0,1-1.1-.1.35.35,0,0,0-.3.07.37.37,0,0,0-.13.27v.89l-1.17-.2a.34.34,0,0,0-.29.08.3.3,0,0,0-.12.27c0,.07.15,5.8.21,9.49l-2,1.78s0,0,0,0,0,0,0,0a1.5,1.5,0,0,0-.37,1.14,1.91,1.91,0,0,0,.16.77l-1.68,1.47s0,0,0,0a1.65,1.65,0,0,0-.48,1.3,1.85,1.85,0,0,0,1.3,1.93l20,5.62h0l0,0a.2.2,0,0,0,.11,0,.37.37,0,0,0,.27-.13l6.12-7.89a.4.4,0,0,0,.06-.3.35.35,0,0,0-.2-.23A.58.58,0,0,1,65.35,133.77Zm-24.71-2.25a.89.89,0,0,1,.17-.65.42.42,0,0,1,.28-.12l2.9.61v1.84l-2.71-.66C41.22,132.53,40.65,132.38,40.64,131.52Zm11.16-1.69s0,0,.06,0h0s0,0-.06,0Zm.17.77a.33.33,0,0,0,.29,0,8.35,8.35,0,0,1,3.8-.66,31.62,31.62,0,0,1,5.56.58h0l-3,3.22L43.72,130.6a13.38,13.38,0,0,1,4.19-.69A11.29,11.29,0,0,1,52,130.6Zm-7.29.9,1,.2v1.9l-1-.23Zm1.66.35,6.76,1.41v2.15l-6.76-1.64Zm7.45,1.55,4.54.95,0,.59v1.75l-4.55-1.11Zm5.24.91,4.19-4.49a2.51,2.51,0,0,0,.08.67,1.11,1.11,0,0,0,.27.52l-4.5,5.19,0-1.28Zm3.89-5.17-.88.94v-1Zm-3,.25a.35.35,0,0,0,.3,0,.35.35,0,0,0,.14-.28c0-2.31,0-7.79,0-10.73.36-.08.74-.17,1.1-.27,0,2,0,7.84-.06,10.6h0c0,.46,0,.83,0,1.09a33.57,33.57,0,0,0-5.29-.5,10.54,10.54,0,0,0-3.52.48c.27-.28,1.15-1,3.25-1A15.88,15.88,0,0,1,59.88,129.39ZM56.4,117a3.55,3.55,0,0,0,1.34.25,5.82,5.82,0,0,0,1.89-.36c0,1.91,0,8.68,0,11.73a15.62,15.62,0,0,0-3.85-.55,5.74,5.74,0,0,0-3.29.81L52.71,117a3.35,3.35,0,0,1,1.72-.54A5,5,0,0,1,56.4,117Zm-6.6-2.22a3.64,3.64,0,0,0,.89.21.23.23,0,0,0,.23-.14.22.22,0,0,0-.08-.27,2.73,2.73,0,0,1-.79-1.14,3.65,3.65,0,0,0,.88.22.24.24,0,0,0,.24-.15.22.22,0,0,0-.08-.26,2,2,0,0,1-.56-.83,2.44,2.44,0,0,0,.67.17.19.19,0,0,0,.18-.06,3.07,3.07,0,0,0,.74-1.84.43.43,0,0,1,0,0h0a3.14,3.14,0,0,0,.77,1.81.24.24,0,0,0,.18.07,5.21,5.21,0,0,0,.73-.16,2,2,0,0,1-.6.89.25.25,0,0,0-.08.27.24.24,0,0,0,.24.15,3.73,3.73,0,0,0,.89-.23,2.54,2.54,0,0,1-.8,1.14.23.23,0,0,0-.08.27.23.23,0,0,0,.24.15,4.14,4.14,0,0,0,.89-.22,2.68,2.68,0,0,1-4.71,0Zm-4.57,3.69a7.12,7.12,0,0,0,3.61-1,4.24,4.24,0,0,1,2.15-.66,2.66,2.66,0,0,1,1,.19c0,1.2-.17,7.09-.27,11.83a5.52,5.52,0,0,0-2.91-.62,21.22,21.22,0,0,0-4.31.54l-.13-10.37A8.19,8.19,0,0,0,45.23,118.47Zm-1.51,1.14.13,9.62a.33.33,0,0,0,.13.26.36.36,0,0,0,.3.07,21.16,21.16,0,0,1,4.56-.62c1.49,0,2.49.3,2.92.85a13,13,0,0,0-3.85-.57,14.33,14.33,0,0,0-4.87.87c0-2.88-.17-9-.21-10.63C43.05,119.5,43.36,119.56,43.72,119.61Zm-1.36,10.7-.76-.16.75-.68C42.35,129.78,42.36,130.06,42.36,130.31Zm-3.76,4.8c0-.8.37-.93.61-.93l1.91.46v2.22l-1.75-.49C39.3,136.35,38.6,136.16,38.6,135.11Zm14.16,2.35v2.67L41.58,137v-2.24ZM59,141.87l-5.75-1.61v-2.69L59,139Zm.25-3.56-19.54-4.72.83-.73a1.42,1.42,0,0,0,.62.35l17.47,4.25h.08a.37.37,0,0,0,.22-.08s0,0,0,0,.08,0,.11-.05l4.41-5.09.93.09Zm.52,3v-2.6l4.85-5.67a2.79,2.79,0,0,0,.08.83,1.36,1.36,0,0,0,.34.63Z"/><path class="cls-1" d="M8.9,81.16a5,5,0,0,0,5-4.87.32.32,0,0,0,0-.14L10,67.34h7.31L16.36,86h-3a.35.35,0,0,0-.34.35v1.53a.34.34,0,0,0,.34.34h2.91l-.2,4.12H14.87a.35.35,0,0,0-.25.1.34.34,0,0,0-.09.25,3.43,3.43,0,0,0,6.85,0,.35.35,0,0,0-.1-.25.31.31,0,0,0-.24-.1H19.68l-.21-4.12h3.09a.34.34,0,0,0,.34-.34V86.38a.35.35,0,0,0-.34-.35h-3.2l-.94-18.69h7.43L22,76.15a.32.32,0,0,0,0,.14,5,5,0,0,0,10,0,.22.22,0,0,0,0-.14L27.25,65.58a.33.33,0,0,0-.31-.21H18.32L18.2,63a.35.35,0,0,0-.34-.33.36.36,0,0,0-.35.33l-.12,2.41H8.89a.34.34,0,0,0-.31.21L3.93,76.15a.32.32,0,0,0,0,.14A5,5,0,0,0,8.9,81.16ZM19,92.36H16.77l2.13-1.77Zm-.13-2.63-2.08,1.73.06-1.11,2-1.65Zm-.59-1.48-1.39,1.16.06-1.16ZM18,95.37a2.72,2.72,0,0,1-2.7-2.32h5.41A2.73,2.73,0,0,1,18,95.37Zm4.27-7.8H13.69v-.85h8.53ZM18.67,86H17.05l.81-16.18Zm-9.55-20h8.6a.35.35,0,0,0,.14,0,.28.28,0,0,0,.13,0h8.73l4.52,10.29a4.31,4.31,0,0,1-8.62,0l4.07-9.22a.33.33,0,0,0,0-.33.35.35,0,0,0-.28-.15H18.06a.32.32,0,0,0-.2.06.37.37,0,0,0-.21-.06H9.46a.35.35,0,0,0-.29.15.35.35,0,0,0,0,.33l4.07,9.22a4.31,4.31,0,0,1-8.62,0Z"/><path class="cls-1" d="M12.33,76.52a.34.34,0,0,0,.34-.34.38.38,0,0,0-.05-.19L9.21,68.15a.34.34,0,0,0-.31-.21.35.35,0,0,0-.32.21L5.16,76a.33.33,0,0,0,0,.32.36.36,0,0,0,.29.16h6.86ZM6,75.83l2.9-6.68,2.9,6.68Z"/><path class="cls-1" d="M23.19,76a.36.36,0,0,0,0,.32.35.35,0,0,0,.29.16h6.85a.35.35,0,0,0,.35-.34.31.31,0,0,0-.06-.19l-3.4-7.84a.35.35,0,0,0-.32-.21.34.34,0,0,0-.31.21Zm3.74-6.89,2.9,6.68H24Z"/><path class="cls-1" d="M35.13,104.55a1.22,1.22,0,1,0-1.21-1.22A1.22,1.22,0,0,0,35.13,104.55Z"/></svg>